<svg width="22" height="17" viewBox="0 0 22 17" fill="none" xmlns="http://www.w3.org/2000/svg">
<path d="M0 8.5V12.75C0 13.3377 0.474805 13.8125 1.0625 13.8125H2.125V7.4375H1.0625C0.474805 7.4375 0 7.9123 0 8.5ZM15.4062 3.1875H11.6875V1.0625C11.6875 0.474805 11.2127 0 10.625 0C10.0373 0 9.5625 0.474805 9.5625 1.0625V3.1875H5.84375C4.37617 3.1875 3.1875 4.37617 3.1875 5.84375V14.875C3.1875 16.0471 4.14043 17 5.3125 17H15.9375C17.1096 17 18.0625 16.0471 18.0625 14.875V5.84375C18.0625 4.37617 16.8738 3.1875 15.4062 3.1875ZM8.5 13.8125H6.375V12.75H8.5V13.8125ZM7.4375 9.82812C6.70371 9.82812 6.10938 9.23379 6.10938 8.5C6.10938 7.76621 6.70371 7.17188 7.4375 7.17188C8.17129 7.17188 8.76562 7.76621 8.76562 8.5C8.76562 9.23379 8.17129 9.82812 7.4375 9.82812ZM11.6875 13.8125H9.5625V12.75H11.6875V13.8125ZM14.875 13.8125H12.75V12.75H14.875V13.8125ZM13.8125 9.82812C13.0787 9.82812 12.4844 9.23379 12.4844 8.5C12.4844 7.76621 13.0787 7.17188 13.8125 7.17188C14.5463 7.17188 15.1406 7.76621 15.1406 8.5C15.1406 9.23379 14.5463 9.82812 13.8125 9.82812ZM20.1875 7.4375H19.125V13.8125H20.1875C20.7752 13.8125 21.25 13.3377 21.25 12.75V8.5C21.25 7.9123 20.7752 7.4375 20.1875 7.4375Z" fill="#161826"/>
</svg>
