<svg width="30" height="25" viewBox="0 0 30 25" fill="none" xmlns="http://www.w3.org/2000/svg">
<g filter="url(#filter0_d_1_415)">
<path d="M4.43262 8.5V12.75C4.43262 13.3377 4.90742 13.8125 5.49512 13.8125H6.55762V7.4375H5.49512C4.90742 7.4375 4.43262 7.9123 4.43262 8.5ZM19.8389 3.1875H16.1201V1.0625C16.1201 0.474805 15.6453 0 15.0576 0C14.4699 0 13.9951 0.474805 13.9951 1.0625V3.1875H10.2764C8.80879 3.1875 7.62012 4.37617 7.62012 5.84375V14.875C7.62012 16.0471 8.57305 17 9.74512 17H20.3701C21.5422 17 22.4951 16.0471 22.4951 14.875V5.84375C22.4951 4.37617 21.3064 3.1875 19.8389 3.1875ZM12.9326 13.8125H10.8076V12.75H12.9326V13.8125ZM11.8701 9.82812C11.1363 9.82812 10.542 9.23379 10.542 8.5C10.542 7.76621 11.1363 7.17188 11.8701 7.17188C12.6039 7.17188 13.1982 7.76621 13.1982 8.5C13.1982 9.23379 12.6039 9.82812 11.8701 9.82812ZM16.1201 13.8125H13.9951V12.75H16.1201V13.8125ZM19.3076 13.8125H17.1826V12.75H19.3076V13.8125ZM18.2451 9.82812C17.5113 9.82812 16.917 9.23379 16.917 8.5C16.917 7.76621 17.5113 7.17188 18.2451 7.17188C18.9789 7.17188 19.5732 7.76621 19.5732 8.5C19.5732 9.23379 18.9789 9.82812 18.2451 9.82812ZM24.6201 7.4375H23.5576V13.8125H24.6201C25.2078 13.8125 25.6826 13.3377 25.6826 12.75V8.5C25.6826 7.9123 25.2078 7.4375 24.6201 7.4375Z" fill="#161826"/>
</g>
<defs>
<filter id="filter0_d_1_415" x="0.432617" y="0" width="29.25" height="25" filterUnits="userSpaceOnUse" color-interpolation-filters="sRGB">
<feFlood flood-opacity="0" result="BackgroundImageFix"/>
<feColorMatrix in="SourceAlpha" type="matrix" values="0 0 0 0 0 0 0 0 0 0 0 0 0 0 0 0 0 0 127 0" result="hardAlpha"/>
<feOffset dy="4"/>
<feGaussianBlur stdDeviation="2"/>
<feComposite in2="hardAlpha" operator="out"/>
<feColorMatrix type="matrix" values="0 0 0 0 0 0 0 0 0 0 0 0 0 0 0 0 0 0 0.25 0"/>
<feBlend mode="normal" in2="BackgroundImageFix" result="effect1_dropShadow_1_415"/>
<feBlend mode="normal" in="SourceGraphic" in2="effect1_dropShadow_1_415" result="shape"/>
</filter>
</defs>
</svg>
